<svg xmlns="http://www.w3.org/2000/svg" width="80" height="61.38" viewBox="0 0 80 61.38">
  <defs>
    <style>
      .cls-1 {
        fill: #fd3344;
        fill-rule: evenodd;
      }
    </style>
  </defs>
  <path id="Forma_1" data-name="Forma 1" class="cls-1" d="M454.2,1165.47c-0.734-.84-17.964-20.48-39.689-20.48s-38.955,19.64-39.689,20.48a1.342,1.342,0,0,0,0,1.74c0.734,0.84,17.964,20.48,39.689,20.48s38.955-19.64,39.689-20.48A1.344,1.344,0,0,0,454.2,1165.47Zm-76.55.87c2.587-2.67,11.162-11.13,22.431-15.68a21.249,21.249,0,0,0-1.344,30.01q0.641,0.7,1.344,1.35C388.814,1177.47,380.239,1169.01,377.652,1166.34Zm36.861,18.68a18.68,18.68,0,1,1,18.671-18.68A18.673,18.673,0,0,1,414.513,1185.02Zm14.43-3a21.25,21.25,0,0,0,1.345-30.01q-0.642-.705-1.345-1.35c11.269,4.55,19.844,13.01,22.431,15.68C448.787,1169.01,440.212,1177.47,428.943,1182.02Zm-4.161-26.16a1.336,1.336,0,0,0-1.867,1.9,11.993,11.993,0,1,1-8.4-3.43,1.335,1.335,0,0,0,0-2.67A14.681,14.681,0,1,0,424.782,1155.86Zm-3.858-2.73h-0.01a16.1,16.1,0,0,0-2-.8,1.327,1.327,0,0,0-1.676.86c0,0.01,0,.01,0,0.02a1.339,1.339,0,0,0,.88,1.67,12.107,12.107,0,0,1,1.64.65,1.2,1.2,0,0,0,.587.13,1.307,1.307,0,0,0,1.2-.74A1.342,1.342,0,0,0,420.924,1153.13Zm-17.08-18.82a6.665,6.665,0,0,1-6.668-6.67,1.334,1.334,0,0,0-2.667,0,6.666,6.666,0,0,1-6.669,6.67,1.335,1.335,0,0,0,0,2.67,6.672,6.672,0,0,1,6.669,6.67,1.334,1.334,0,1,0,2.667,0,6.671,6.671,0,0,1,6.668-6.67A1.335,1.335,0,0,0,403.844,1134.31Zm-8,4.55a9.317,9.317,0,0,0-3.214-3.21,9.345,9.345,0,0,0,3.214-3.22,9.354,9.354,0,0,0,3.214,3.22A9.325,9.325,0,0,0,395.842,1138.86Z" transform="translate(-374.531 -1126.31)"/>
</svg>
