<svg xmlns="http://www.w3.org/2000/svg" width="66" height="76" viewBox="0 0 66 76">
  <defs>
    <style>
      .cls-1 {
        fill: #fd3344;
        fill-rule: evenodd;
      }
    </style>
  </defs>
  <path class="cls-1" d="M407.665,968.966a1.226,1.226,0,1,1-1.222,1.226A1.224,1.224,0,0,1,407.665,968.966Zm14.669,0a1.226,1.226,0,1,1-1.222,1.226A1.225,1.225,0,0,1,422.334,968.966ZM415,982.451A2.451,2.451,0,0,1,412.555,980H410.11a4.89,4.89,0,1,0,9.779,0h-2.444A2.451,2.451,0,0,1,415,982.451Zm22.975,17.284a21.9,21.9,0,0,0,4.979-5.643l0.64-1.126-1.155-.58a12.008,12.008,0,0,1-6.658-10.795V961.428A19.413,19.413,0,0,0,416.368,942H416.05a18.366,18.366,0,0,0-13.094,5.442l-2.1,2.1a10.925,10.925,0,0,0-6.642,10.092v21.953a12.014,12.014,0,0,1-6.659,10.8l-1.155.58,0.641,1.126a21.914,21.914,0,0,0,4.979,5.643A19.409,19.409,0,0,0,382,1016.77V1018h66.01v-1.23A19.409,19.409,0,0,0,437.975,999.735Zm-21.926-55.286h0.318a16.965,16.965,0,0,1,16.97,16.978v20.164a14.442,14.442,0,0,0,6.81,12.317,19.6,19.6,0,0,1-4.69,4.638L423.389,993.6a3.661,3.661,0,0,1-2.277-3.4V989.31a22.714,22.714,0,0,0,9.779-18.689v-7.669l-14.009-1.4a16.7,16.7,0,0,1-13.908-10.66l1.71-1.716a15.942,15.942,0,0,1,11.365-4.722h0Zm8.73,52.711c0,2.029-1.919,3.68-4.278,3.68a4.507,4.507,0,0,1-3.469-1.541,7.286,7.286,0,0,0,4.564-3.879,6.075,6.075,0,0,0,.869.445l2.262,0.927a3.324,3.324,0,0,1,.052.368h0Zm-19.506-.368,2.262-.927a6.023,6.023,0,0,0,.869-0.445,7.283,7.283,0,0,0,4.564,3.879,4.51,4.51,0,0,1-3.469,1.541c-2.359,0-4.278-1.651-4.278-3.68a3.324,3.324,0,0,1,.052-0.368h0ZM415,989.735a20.256,20.256,0,0,1-13.447-19.112V968.1a6.1,6.1,0,0,1,2.831-5.17l3.4-2.171a19.075,19.075,0,0,0,8.852,3.229l11.808,1.184v5.451A20.255,20.255,0,0,1,415,989.735Zm-0.386,2.46L415,992.324l0.386-.129a22.818,22.818,0,0,0,3.324-1.412,6.115,6.115,0,0,0,.977,2.806,4.862,4.862,0,0,1-9.375,0,6.1,6.1,0,0,0,.977-2.806,22.94,22.94,0,0,0,3.325,1.412h0ZM415,1000.67a6.3,6.3,0,0,0,1.183,1.17l2.265,13.71h-6.9l2.266-13.71A6.363,6.363,0,0,0,415,1000.67Zm-25.146-6.762a14.453,14.453,0,0,0,6.81-12.325V959.63a8.48,8.48,0,0,1,4.219-7.363,19.181,19.181,0,0,0,4.864,6.886l-2.674,1.706a8.549,8.549,0,0,0-3.964,7.241v2.523a22.714,22.714,0,0,0,9.779,18.689v0.88a3.66,3.66,0,0,1-2.279,3.4l-12.066,4.95a19.587,19.587,0,0,1-4.689-4.637h0Zm5.14,7.1,7.82-3.209a6.533,6.533,0,0,0,6.685,5.489,7.338,7.338,0,0,0,1.634-.2l-2.059,12.46h-12.41v-7.36h-2.445v7.36h-9.737A16.962,16.962,0,0,1,394.994,1001.01Zm40.787,14.54v-7.36h-2.445v7.36h-12.41l-2.06-12.46a7.347,7.347,0,0,0,1.635.2,6.533,6.533,0,0,0,6.685-5.488l7.82,3.208a16.961,16.961,0,0,1,10.511,14.54h-9.736Zm-7.521-54.963,2.412-.4a15.814,15.814,0,0,0-.685-2.658l-2.306.818a13.348,13.348,0,0,1,.579,2.244h0Zm-1.612-4.493,2.116-1.226A15.937,15.937,0,0,0,415,946.9v2.451A13.492,13.492,0,0,1,426.648,956.094Z" transform="translate(-382 -942)"/>
</svg>
