<svg xmlns="http://www.w3.org/2000/svg" width="72" height="72" viewBox="0 0 72 72">
  <defs>
    <style>
      .cls-1 {
        fill: #fd3344;
        fill-rule: evenodd;
      }
    </style>
  </defs>
  <path id="Forma_1" data-name="Forma 1" class="cls-1" d="M450.969,1370.9a1.625,1.625,0,0,0,.015-0.17,1.534,1.534,0,0,0,0-.19,1.038,1.038,0,0,0-.024-0.16,1.143,1.143,0,0,0-.053-0.19c-0.011-.03-0.013-0.07-0.026-0.1s-0.027-.04-0.038-0.06-0.015-.05-0.027-0.07l-12-21.33a1.716,1.716,0,0,0-.193-0.26h0a1.128,1.128,0,0,0-.356-0.25c-0.017-.01-0.028-0.02-0.046-0.03a0.063,0.063,0,0,1-.041-0.01,1.2,1.2,0,0,0-.377-0.07H392.182a1.168,1.168,0,0,0-.372.07c-0.013.01-.026,0-0.038,0.01s-0.029.02-.046,0.03a1.248,1.248,0,0,0-.344.23c-0.006.01-.015,0.01-0.021,0.02a1.665,1.665,0,0,0-.195.26l-12,21.33c-0.012.02-.017,0.05-0.028,0.07s-0.027.04-.037,0.06-0.016.07-.028,0.1a1.749,1.749,0,0,0-.053.18,1.651,1.651,0,0,0-.023.17,1.141,1.141,0,0,0-.008.19c0,0.06.008,0.11,0.016,0.17a1.3,1.3,0,0,0,.044.19c0.016,0.05.033,0.1,0.054,0.15,0.011,0.02.015,0.05,0.027,0.08s0.048,0.06.069,0.1a0.375,0.375,0,0,0,.047.08l34.8,47.97c0,0.01,0,.01.008,0.01l0,0.01c0,0.01.01,0.01,0.014,0.02a1.228,1.228,0,0,0,.354.31,0.492,0.492,0,0,0,.107.05,1.062,1.062,0,0,0,.459.12,1.205,1.205,0,0,0,.412-0.08c0.02-.01.034-0.03,0.054-0.04a0.678,0.678,0,0,0,.165-0.11,1.028,1.028,0,0,0,.247-0.22c0.017-.02.042-0.03,0.057-0.05l34.809-47.99a0.565,0.565,0,0,0,.047-0.08c0.022-.04.05-0.07,0.069-0.1s0.016-.06.027-0.08c0.021-.05.038-0.1,0.054-0.15S450.959,1370.96,450.969,1370.9Zm-33.461-20.23h18.556l-5.834,17.39Zm10.559,18.67H401.905l13.08-17.88Zm-28.411-1.16-5.76-17.51h18.567Zm29.253,3.82-14.134,42.13L400.913,1372h28Zm9.155-19.65,9.563,16.99H432.364Zm-46.169.01,5.585,16.98H382.343Zm6.463,19.64,13.01,39.55L382.686,1372h15.672Zm19.5,40.57L431.47,1372h15.815Z" transform="translate(-379 -1348)"/>
</svg>
