<svg xmlns="http://www.w3.org/2000/svg" width="301.75" height="38" viewBox="0 0 301.75 38">
  <defs>
    <style>
      .cls-1 {
        fill-rule: evenodd;
        opacity: 0.25;
      }
    </style>
  </defs>
  <path class="cls-1" d="M908.627,4580.89l-9.329-9.54a1,1,0,0,0-1.427,1.4l4.585,4.69c-2.119-1.16-4.564-2.49-5.815-3.11-39.288-19.47-85.521-29.34-137.416-29.34a331.4,331.4,0,0,0-151.537,36.1,1,1,0,0,0,.452,1.9,1.044,1.044,0,0,0,.451-0.11A329.376,329.376,0,0,1,759.225,4547c51.585,0,97.52,9.8,136.53,29.13,1.317,0.65,4.076,2.15,6.294,3.37l-7.036-1.28a1,1,0,0,0-.359,1.97l13.08,2.39a1.114,1.114,0,0,0,.18.02A1.008,1.008,0,0,0,908.627,4580.89Z" transform="translate(-607.156 -4545)"/>
</svg>
