<svg xmlns="http://www.w3.org/2000/svg" width="32" height="32" viewBox="0 0 32 32">
  <defs>
    <style>
      .cls-1 {
        fill: #fd3344;
        fill-rule: evenodd;
      }
    </style>
  </defs>
  <path id="Forma_1" data-name="Forma 1" class="cls-1" d="M397,49H385a10,10,0,0,0-10,10V71a10,10,0,0,0,10,10h12a10,10,0,0,0,10-10V59A10,10,0,0,0,397,49Zm7,22a7.009,7.009,0,0,1-7,7H385a7.009,7.009,0,0,1-7-7V59a7.009,7.009,0,0,1,7-7h12a7.009,7.009,0,0,1,7,7V71ZM391,57a8,8,0,1,0,8,8A8,8,0,0,0,391,57Zm0,13a5,5,0,1,1,5-5A5.008,5.008,0,0,1,391,70Zm8.6-14.668a1.066,1.066,0,1,1-1.066,1.066A1.066,1.066,0,0,1,399.6,55.332Z" transform="translate(-375 -49)"/>
</svg>
