<svg xmlns="http://www.w3.org/2000/svg" width="66" height="80" viewBox="0 0 66 80">
  <defs>
    <style>
      .cls-1 {
        fill: #c20051;
        fill-rule: evenodd;
      }
    </style>
  </defs>
  <path class="cls-1" d="M637.083,1606.25a0.25,0.25,0,0,0-.239-0.26h-0.591a0.25,0.25,0,0,0-.238.26v7.49a0.25,0.25,0,0,0,.238.26h0.591a0.25,0.25,0,0,0,.239-0.26v-7.49Zm2.5-.01a0.29,0.29,0,0,0-.3-0.25H638.62a0.257,0.257,0,0,0-.239.26v7.49a0.25,0.25,0,0,0,.239.26h0.549a0.25,0.25,0,0,0,.239-0.26v-4.98l1.514,4.99a0.291,0.291,0,0,0,.3.25h0.612a0.25,0.25,0,0,0,.239-0.26v-7.49a0.257,0.257,0,0,0-.239-0.26h-0.56a0.257,0.257,0,0,0-.239.26v4.91Zm5.984,7.76a1.487,1.487,0,0,0,1.452-1.6v-1.02a1.726,1.726,0,0,0-.923-1.64l-1.224-.8a0.8,0.8,0,0,1-.456-0.81v-0.32a0.6,0.6,0,0,1,.6-0.72h0.332a0.629,0.629,0,0,1,.632.73v0.69a0.251,0.251,0,0,0,.239.26h0.591a0.244,0.244,0,0,0,.239-0.26v-0.89a1.491,1.491,0,0,0-1.6-1.63h-0.508a1.5,1.5,0,0,0-1.6,1.6v0.81a1.483,1.483,0,0,0,.674,1.41l1.286,0.84a1.1,1.1,0,0,1,.643,1.07v0.45a0.613,0.613,0,0,1-.6.73H645a0.62,0.62,0,0,1-.633-0.73v-0.8a0.26,0.26,0,0,0-.238-0.27h-0.592a0.253,0.253,0,0,0-.238.27v1.04a1.5,1.5,0,0,0,1.608,1.59h0.663Zm5.926-7.75a0.257,0.257,0,0,0-.239-0.26h-3.339a0.257,0.257,0,0,0-.239.26v0.58a0.251,0.251,0,0,0,.239.26h1.13v6.65a0.257,0.257,0,0,0,.239.26h0.591a0.258,0.258,0,0,0,.239-0.26v-6.65h1.14a0.251,0.251,0,0,0,.239-0.26v-0.58Zm2.78,7.51a0.233,0.233,0,0,0,.239.24h0.674a0.214,0.214,0,0,0,.218-0.23c0-.03-0.011-0.13-0.031-0.27l-0.986-7.25a0.245,0.245,0,0,0-.249-0.26H652.77a0.247,0.247,0,0,0-.249.26l-0.985,7.25a1.04,1.04,0,0,0-.031.27,0.2,0.2,0,0,0,.207.23H652.3a0.236,0.236,0,0,0,.249-0.24l0.228-1.82h1.275Zm-0.861-6.76h0.042l0.487,3.86h-1.037Zm5.324,3.98a0.312,0.312,0,0,0,.322-0.28l0.612-2.04v5.08a0.25,0.25,0,0,0,.238.26H660.5a0.25,0.25,0,0,0,.238-0.26v-7.5a0.255,0.255,0,0,0-.238-0.25h-0.737a0.3,0.3,0,0,0-.28.25l-0.892,3.14-0.9-3.14a0.286,0.286,0,0,0-.28-0.25h-0.726a0.255,0.255,0,0,0-.239.25v7.5a0.25,0.25,0,0,0,.239.26h0.57a0.25,0.25,0,0,0,.239-0.26v-5.08l0.612,2.04a0.312,0.312,0,0,0,.321.28h0.311Zm6.51,3.02a0.25,0.25,0,0,0,.238-0.26v-0.59a0.241,0.241,0,0,0-.238-0.25h-2.2v-2.4h1.784a0.247,0.247,0,0,0,.238-0.25v-0.59a0.244,0.244,0,0,0-.238-0.26h-1.784v-2.31H665.2a0.244,0.244,0,0,0,.238-0.26v-0.59a0.247,0.247,0,0,0-.238-0.25h-2.977a0.255,0.255,0,0,0-.238.25v7.5a0.257,0.257,0,0,0,.238.26h3.029Zm4.764-7.75a0.257,0.257,0,0,0-.239-0.26h-3.34a0.257,0.257,0,0,0-.238.26v0.58a0.251,0.251,0,0,0,.238.26h1.131v6.65a0.257,0.257,0,0,0,.238.26h0.592a0.257,0.257,0,0,0,.238-0.26v-6.65h1.141a0.251,0.251,0,0,0,.239-0.26v-0.58Zm3.772,3.46c0.3-1.1.581-2.2,0.881-3.3a0.71,0.71,0,0,0,.021-0.14,0.246,0.246,0,0,0-.28-0.28h-0.477a0.3,0.3,0,0,0-.332.28l-0.778,2.99a0.172,0.172,0,0,1-.166.14h-0.8v-3.16a0.242,0.242,0,0,0-.239-0.25h-0.591a0.242,0.242,0,0,0-.239.25v7.5a0.257,0.257,0,0,0,.239.26h0.591a0.25,0.25,0,0,0,.239-0.26v-3.24h0.975a0.605,0.605,0,0,1,.612.67v2.33c0,0.32.1,0.5,0.394,0.5h0.508a0.183,0.183,0,0,0,.207-0.2c0-.14-0.041-0.27-0.041-0.55v-2.04A1.424,1.424,0,0,0,673.783,1609.71Zm4.09,4.05a0.232,0.232,0,0,0,.238.24h0.674a0.214,0.214,0,0,0,.218-0.23,2.681,2.681,0,0,0-.031-0.27l-0.985-7.25a0.247,0.247,0,0,0-.249-0.26h-1.369a0.246,0.246,0,0,0-.249.26l-0.986,7.25a1.04,1.04,0,0,0-.031.27,0.2,0.2,0,0,0,.208.23H675.9a0.236,0.236,0,0,0,.249-0.24l0.228-1.82h1.276Zm-0.861-6.76h0.041l0.488,3.86H676.5Zm2.488,42h-45a10.495,10.495,0,0,1-7.82-17.5A6.955,6.955,0,0,1,624,1626v-50a7.008,7.008,0,0,1,7-7h52a7.008,7.008,0,0,1,7,7v50a6.958,6.958,0,0,1-2.68,5.5A10.495,10.495,0,0,1,679.5,1649ZM631,1571a5,5,0,0,0-5,5v50a4.985,4.985,0,0,0,2.727,4.45l1.314,0.67-1.114.97A8.494,8.494,0,0,0,634.5,1647h45a8.494,8.494,0,0,0,5.573-14.91l-1.115-.97,1.315-.67A4.985,4.985,0,0,0,688,1626v-50a5,5,0,0,0-5-5H631Zm50,59H633a4,4,0,0,1-4-4v-48a4,4,0,0,1,4-4h48a4,4,0,0,1,4,4v48A4,4,0,0,1,681,1630Zm-48-54a2,2,0,0,0-2,2v48a2,2,0,0,0,2,2h48a2,2,0,0,0,2-2v-48a2,2,0,0,0-2-2H633Zm2,7h-2v-2a3.006,3.006,0,0,1,3-3h2v2h-2a1,1,0,0,0-1,1v2Zm46,0h-2v-2a1,1,0,0,0-1-1h-2v-2h2a3.006,3.006,0,0,1,3,3v2Zm-43,43h-2a3.006,3.006,0,0,1-3-3v-2h2v2a1,1,0,0,0,1,1h2v2Zm40,0h-2v-2h2a1,1,0,0,0,1-1v-2h2v2A3.006,3.006,0,0,1,678,1626Zm1.5,18h-45a5.5,5.5,0,0,1,0-11h19.086l3.414-3.41,3.414,3.41H679.5A5.5,5.5,0,0,1,679.5,1644Zm-45-9a3.5,3.5,0,0,0,0,7h45a3.5,3.5,0,0,0,0-7H659.586L657,1632.41l-2.586,2.59H634.5Zm25.5-33h-6a4,4,0,0,1-4-4v-6a4,4,0,0,1,4-4h6a4,4,0,0,1,4,4v6A4,4,0,0,1,660,1602Zm-6-12a2,2,0,0,0-2,2v6a2,2,0,0,0,2,2h6a2,2,0,0,0,2-2v-6a2,2,0,0,0-2-2h-6Zm3,8a3,3,0,1,1,3-3A3.006,3.006,0,0,1,657,1598Zm0-4a1,1,0,1,0,1,1A1,1,0,0,0,657,1594Z" transform="translate(-624 -1569)"/>
</svg>
