<svg xmlns="http://www.w3.org/2000/svg" width="272" height="54.969" viewBox="0 0 272 54.969">
  <defs>
    <style>
      .cls-1 {
        fill: #fff;
        fill-rule: evenodd;
      }
    </style>
  </defs>
  <path id="Shape_1_copy_2" data-name="Shape 1 copy 2" class="cls-1" d="M378.115,267.007H375v-3.118a9.886,9.886,0,0,1,9.875-9.875h3.119v3.118h-3.119a6.764,6.764,0,0,0-6.756,6.757v3.118Zm0,28.983H375v3.119a9.886,9.886,0,0,0,9.875,9.875h3.119v-3.118h-3.119a6.765,6.765,0,0,1-6.756-6.757V295.99Zm265.77-28.983H647v-3.118a9.885,9.885,0,0,0-9.875-9.875H634.01v3.118h3.118a6.764,6.764,0,0,1,6.757,6.757v3.118Zm0,28.983H647v3.119a9.886,9.886,0,0,1-9.875,9.875H634.01v-3.118h3.118a6.765,6.765,0,0,0,6.757-6.757V295.99Z" transform="translate(-375 -254)"/>
</svg>
