<svg xmlns="http://www.w3.org/2000/svg" width="228" height="127" viewBox="0 0 228 127">
  <defs>
    <style>
      .cls-1 {
        fill: #1d2020;
        fill-rule: evenodd;
      }
    </style>
  </defs>
  <path class="cls-1" d="M1165.21,9552.91c0.25,5.17.49,10.34,0.76,15.5,0.1,1.84.29,3.64,0.43,5.46a0.605,0.605,0,0,1,0,.19,0.829,0.829,0,0,1-.53.97,1.008,1.008,0,0,1-.41-0.7,9.012,9.012,0,0,1-.17-1.06c-0.16-1.06-.33-2.12-0.48-3.18-0.21-1.43-.41-2.85-0.58-4.28-0.1-.8-0.17-1.61-0.21-2.42-0.18-4.14-.45-8.23-0.85-12.31s-0.39-8.29-.53-12.46c-0.1-3.04-.16-6.08-0.2-9.14-0.01-1.13.1-2.29,0.13-3.43,0.06-2.13.09-4.24,0.17-6.37,0.02-.62.15-1.26,0.19-1.88,0.08-1.36.12-2.71,0.21-4.07,0.05-.7.21-1.43,0.27-2.13,0.08-.93.09-1.84,0.17-2.76,0.06-.64.21-1.3,0.28-1.94,0.08-.72.1-1.42,0.18-2.14,0.08-.68.23-1.38,0.32-2.06,0.08-.59.09-1.17,0.16-1.76,0.08-.56.19-1.13,0.3-1.69,0.01-.09.06-0.17,0.07-0.26,0.21-1.5.41-3.01,0.63-4.51,0.06-.44.18-0.88,0.28-1.32a2.34,2.34,0,0,0,.09-0.24c0.22-1.3.43-2.6,0.65-3.89,0.07-.38.17-0.75,0.26-1.13,0.02-.1.1-0.2,0.12-0.31,0.23-1.16.44-2.33,0.66-3.5,0.05-.25.09-0.51,0.15-0.76,0.12-.52.25-1.04,0.38-1.56,0.08-.33.17-0.66,0.27-1,0.02-.1.11-0.2,0.13-0.3,0.23-1.04.44-2.09,0.67-3.13q0.09-.375.21-0.75c0.04-.12.15-0.23,0.18-0.36,0.23-.97.44-1.95,0.68-2.93q0.3-1.155.66-2.31c0.31-.99.61-1.99,0.98-2.97,0.43-1.17.92-2.33,1.4-3.49a16.294,16.294,0,0,1,.83-1.74,7.115,7.115,0,0,1,.91-1.33c0.46-.53.97-0.51,1.24,0.01a1.868,1.868,0,0,1,.19.78,10.105,10.105,0,0,1-.96,3.99,11.064,11.064,0,0,1-.76,1.68,2.9,2.9,0,0,1-1.01.93,1.375,1.375,0,0,0-.84.98c-0.23.87-.61,1.72-0.86,2.6-0.27.95-.47,1.91-0.7,2.87-0.06.23-.12,0.46-0.2,0.69a4,4,0,0,0-.2.42c-0.23,1.02-.44,2.04-0.67,3.06-0.06.29-.14,0.59-0.23,0.88-0.03.12-.13,0.24-0.15,0.37-0.23,1.12-.44,2.25-0.66,3.38-0.01.02,0,.04-0.01,0.06-0.28,1.25-.56,2.5-0.85,3.76-0.01.06-.05,0.12-0.06,0.18-0.21,1.3-.41,2.6-0.63,3.9-0.09.54-.23,1.08-0.31,1.62s-0.12,1.05-.2,1.57c-0.09.55-.21,1.09-0.29,1.64-0.08.5-.12,1-0.19,1.5-0.11.76-.24,1.51-0.35,2.26-0.05.4-.12,0.8-0.13,1.2a9.449,9.449,0,0,1-.35,3.13,5.791,5.791,0,0,0-.11,1.32c-0.13,1.21-.27,2.43-0.37,3.65a17.407,17.407,0,0,0-.04,2.04,0.687,0.687,0,0,0,.28.34,1.666,1.666,0,0,0,.32-0.46c0.22-.99.4-1.98,0.62-2.96,0.27-1.14.56-2.27,0.85-3.4,0.22-.84.46-1.68,0.69-2.51s0.45-1.64.72-2.45c0.24-.72.54-1.44,0.82-2.16,0.74-1.91,1.42-3.85,2.24-5.74,0.97-2.22,1.96-4.44,3.13-6.58,1.23-2.25,2.65-4.43,4.05-6.6a49.162,49.162,0,0,1,6.38-7.96,28.053,28.053,0,0,1,4.95-4.07,7.245,7.245,0,0,1,3.26-1.06,2.671,2.671,0,0,1,2.54,2.35c-0.04,1.1.06,2.18,0.04,3.28a4.874,4.874,0,0,1-.26,1.12c-0.05.19-.15,0.37-0.18,0.56a17.966,17.966,0,0,1-1.55,4.62c-0.44.92-.76,1.89-1.22,2.8-1.03,2-2.09,4-3.2,5.96-1.13,1.99-2.31,3.95-3.52,5.89q-2.7,4.275-5.48,8.5c-1.63,2.48-3.33,4.91-4.98,7.38a3.056,3.056,0,0,0-.28.75,2.045,2.045,0,0,0,.74,0c2.22-.79,4.44-1.76,6.66-2.38a97.758,97.758,0,0,1,9.96-2.37,45.439,45.439,0,0,1,7.42-.5,38.87,38.87,0,0,1,6.32.45,34.508,34.508,0,0,1,5.13,1.44,16.135,16.135,0,0,1,5.39,3.39,13.89,13.89,0,0,1,3.07,3.6c0.53,0.93,1.14,1.82,1.6,2.81a19.851,19.851,0,0,1,.82,2.54c0.17,0.57.31,1.15,0.46,1.73a4.1,4.1,0,0,1,.17.86c0.07,1.25.13,2.5,0.16,3.75a8.128,8.128,0,0,1-.34,3.32,5.469,5.469,0,0,0-.12,1c-0.11.6-.25,1.21-0.37,1.81-0.04.19-.08,0.38-0.13,0.56-0.12.52-.24,1.04-0.39,1.56-0.22.72-.43,1.45-0.68,2.16-0.28.8-.59,1.6-0.92,2.39-0.36.85-.75,1.7-1.16,2.54a53.628,53.628,0,0,1-5.43,8.57,72.758,72.758,0,0,1-7.56,8.47c-1.8,1.73-3.63,3.43-5.5,5.05-1.32,1.15-2.72,2.17-4.12,3.2-1.7,1.25-3.42,2.5-5.16,3.66-1.45.96-2.94,1.82-4.41,2.69-0.92.54-1.85,1.02-2.77,1.53a34.816,34.816,0,0,1-16.04,4.64,26.42,26.42,0,0,1-8.31-1.22,15.1,15.1,0,0,1-6.76-4.15,21.833,21.833,0,0,1-2.31-3.3,8.858,8.858,0,0,1-1.01-2.1,15.847,15.847,0,0,1-.77-3.23,22.671,22.671,0,0,1-.13-4.37c0.14-1.68.51-3.4,0.82-5.1,0.19-.99.41-1.98,0.7-2.96a20.476,20.476,0,0,1,.97-2.64,29.011,29.011,0,0,1,1.72-3.38,25.667,25.667,0,0,1,2.14-2.75c0.48-.57.93-0.66,1.17-0.36a1.439,1.439,0,0,1-.27,1.76,26.131,26.131,0,0,0-2.1,2.11,11.6,11.6,0,0,0-2.16,3.96c-0.41,1.29-.96,2.55-1.36,3.84a18.047,18.047,0,0,0-.62,2.84c-0.16,1.35-.27,2.69-0.3,4.02a16.692,16.692,0,0,0,.22,2.35c0.04,0.34.15,0.65,0.17,1a11.041,11.041,0,0,0,1.21,4.06,13.068,13.068,0,0,0,5.2,5.78,18.561,18.561,0,0,0,7.87,2.67,25.688,25.688,0,0,0,10.53-.8,57.262,57.262,0,0,0,5.68-2.09,41.71,41.71,0,0,0,3.99-1.93c1.85-1.02,3.67-2.12,5.48-3.23q1.875-1.155,3.71-2.43c1.08-.74,2.13-1.55,3.17-2.36,1.07-.82,2.15-1.63,3.18-2.52,1.56-1.34,3.12-2.68,4.62-4.12,1.54-1.49,3.02-3.06,4.48-4.65a60.7,60.7,0,0,0,6.89-9.11,34.708,34.708,0,0,0,3.13-6.13c0.45-1.21,1.02-2.4,1.42-3.61,0.32-.97.37-1.98,0.72-2.93,0.49-1.36.3-2.65,0.61-3.95a14.1,14.1,0,0,0,.16-4.78,20.49,20.49,0,0,0-.68-3.47,14.324,14.324,0,0,0-1.03-2.41,19.357,19.357,0,0,0-1.42-2.62,26.758,26.758,0,0,0-2.08-2.54,14.709,14.709,0,0,0-5.71-3.85,20.047,20.047,0,0,0-3.99-1.14c-1.92-.34-3.89-0.54-5.86-0.72a20.7,20.7,0,0,0-2.83.07,57.3,57.3,0,0,0-12.1,1.76c-1.58.44-3.17,0.82-4.74,1.42-2.15.83-4.28,1.84-6.42,2.77-0.53.22-1.07,0.43-1.6,0.6a0.818,0.818,0,0,1-1.07-.34,1.325,1.325,0,0,1,.12-1.37c1.91-3.14,3.79-6.3,5.73-9.42,2.54-4.06,5.16-8.06,7.68-12.13,1.65-2.67,3.21-5.39,4.73-8.14a41.985,41.985,0,0,0,2.07-4.4,21.094,21.094,0,0,0,1.42-4.11,10.777,10.777,0,0,0-.08-3.72,1.466,1.466,0,0,0-1.33-.71,5.4,5.4,0,0,0-2.88.99c-4.48,2.89-7.75,7.12-10.84,11.59a70.241,70.241,0,0,0-4.87,8.38c-0.96,1.91-1.77,3.88-2.6,5.85-0.68,1.63-1.31,3.28-1.92,4.93-0.31.82-.51,1.67-0.77,2.51-0.28.91-.58,1.83-0.85,2.74-0.2.67-.39,1.34-0.55,2.01-0.25,1.03-.47,2.06-0.71,3.09-0.28,1.17-.57,2.34-0.86,3.52a1.336,1.336,0,0,0-.07.18c-0.22,1.26-.43,2.51-0.65,3.77-0.09.52-.21,1.04-0.32,1.56-0.06.29-.13,0.59-0.17,0.88a112.559,112.559,0,0,0-.22,15.12c0.15,6.02.35,12.03,0.53,18.05C1165.25,9552.9,1165.23,9552.9,1165.21,9552.91Zm169.6-86.83a9.83,9.83,0,0,1,.04,2.03c-0.23,1.37-.35,2.73-0.59,4.08a20.328,20.328,0,0,0-.38,2.76c-0.01.26-.11,0.55-0.15,0.82-0.12.96-.26,1.92-0.35,2.88a0.443,0.443,0,0,0,.26.4,0.95,0.95,0,0,0,.53-0.39c0.76-1.17,1.47-2.37,2.25-3.52a27.9,27.9,0,0,1,1.88-2.45,1.708,1.708,0,0,1,2.19-.45c0.82,0.67,1.55,1.47,2.39,2.13a13.94,13.94,0,0,0,2.22,1.42,2.845,2.845,0,0,0,2.73-.42,27.251,27.251,0,0,0,3.01-2.11c1.07-.82,2.1-1.7,3.14-2.56,0.91-.75,1.79-1.56,2.72-2.25a12.454,12.454,0,0,1,2.37-1.43,1.685,1.685,0,0,1,1.24.23,0.761,0.761,0,0,1,.18.72,1.522,1.522,0,0,1-.55.59,0.739,0.739,0,0,1-.39.11c-1.5.14-2.63,1.25-3.74,2.38a13.506,13.506,0,0,0-2.62,4.04,3.6,3.6,0,0,0-.27,1.37c-0.01.6,0.41,0.73,0.85,0.24,0.91-1.02,1.78-2.07,2.64-3.13,0.85-1.04,1.65-2.13,2.49-3.18a2.294,2.294,0,0,1,.74-0.62c0.44-.21.83-0.14,0.93,0.37,0.57,2.79,3.81,3.69,6.27,2.42a26.017,26.017,0,0,0,6.14-4.66c1.14-1.12,2.23-2.29,3.37-3.42a1.7,1.7,0,0,1,.65-0.25,1.862,1.862,0,0,1-.14.79,14.39,14.39,0,0,1-1.42,1.5c-1.91,1.77-3.78,3.61-5.76,5.27a9.529,9.529,0,0,1-5.92,2.52,4.526,4.526,0,0,1-4.02-1.94,1.366,1.366,0,0,1-.15-0.37c-0.21-.8-0.4-0.82-1-0.04-1.11,1.41-2.17,2.86-3.31,4.25a9.52,9.52,0,0,1-1.74,1.68c-0.89.63-1.54,0.26-1.64-.75a5.491,5.491,0,0,1,.91-3.56,1.93,1.93,0,0,0,.14-0.65,1.862,1.862,0,0,0-.63.2c-0.87.74-1.67,1.61-2.58,2.24-1.76,1.21-3.61,2.3-5.45,1.59a9.8,9.8,0,0,1-2.43-1.49,19.176,19.176,0,0,1-1.88-1.84c-0.46-.48-0.93-0.45-1.41.25-1.33,1.94-2.61,3.93-3.94,5.87a7.225,7.225,0,0,1-1.45,1.61c-0.66.52-1.13,0.23-1.38-.46a8.436,8.436,0,0,1-.19-3.76c0.07-.63.01-1.24,0.07-1.87,0.08-.68.23-1.38,0.35-2.06,0.02-.07.05-0.13,0.06-0.19,0.2-1.55.4-3.1,0.6-4.64,0.04-.34.12-0.68,0.18-1.01,0.11-.63.26-1.26,0.32-1.88a1.2,1.2,0,0,0-.23-0.58,1.97,1.97,0,0,0-.59.42c-0.94,1.34-1.93,2.66-2.77,4.06-1.73,2.89-3.4,5.81-5.04,8.74q-2.25,4.065-4.36,8.18a11.987,11.987,0,0,1-2.9,3.98,1.776,1.776,0,0,1-2.06.43,3.57,3.57,0,0,1-1.73-2.04,9.613,9.613,0,0,1-.54-3.57,7.062,7.062,0,0,1,.22-1.49c0.1-.44-0.02-0.62-0.39-0.53a3.414,3.414,0,0,0-.79.35c-2.46,1.43-4.92,2.86-7.37,4.31-2.26,1.35-4.51,2.73-6.77,4.1-0.53.32-1.04,0.67-1.56,1.01a1.133,1.133,0,0,0-.56,1.1,11.672,11.672,0,0,0,.55,3.66,10.164,10.164,0,0,1,.27,2.07c0.09,0.5.27,0.96,0.39,1.45,0.1,0.47.16,0.97,0.27,1.44,0.13,0.55.29,1.08,0.44,1.61a1.431,1.431,0,0,1,.16.48,6.763,6.763,0,0,0,.79,2.77,1.573,1.573,0,0,0,.56.43,1.766,1.766,0,0,1,.59.66,1,1,0,0,1-.35.75,1.268,1.268,0,0,1-1.02.17,2.152,2.152,0,0,1-.85-1c-0.42-.9-0.76-1.87-1.13-2.8a0.826,0.826,0,0,1-.08-0.22c-0.29-1.76-.57-3.52-0.86-5.27-0.11-.64-0.28-1.26-0.38-1.91-0.13-.92-0.25-1.86-0.32-2.8-0.09-1.04-.07-1.06-1.04-0.98-0.56.05-.76-0.28-0.36-0.79a4.105,4.105,0,0,0,.7-2.99c-0.09-2.6-.19-5.2-0.22-7.82-0.02-1.28.14-2.6,0.18-3.89,0.05-1.89.04-3.77,0.1-5.66,0.03-.72.2-1.47,0.28-2.2,0.07-.75.09-1.5,0.17-2.26,0.06-.54.21-1.09,0.28-1.63,0.09-.61.11-1.21,0.2-1.82,0.07-.52.19-1.04,0.3-1.56,0.03-.13.1-0.26,0.12-0.38,0.2-1.53.38-3.05,0.59-4.58,0.06-.48.18-0.96,0.28-1.44,0.02-.1.08-0.21,0.1-0.31,0.21-1.36.44-2.72,0.6-4.07a3.255,3.255,0,0,1,.86-1.76,0.712,0.712,0,0,1,1.06-.13,2.158,2.158,0,0,1,.79,1.07,10.927,10.927,0,0,1,.11,2.44,1.341,1.341,0,0,1-.85,1.1,2.334,2.334,0,0,0-1.33,1.85,34.294,34.294,0,0,1-.61,4.27,23.539,23.539,0,0,0-.48,3.26c-0.21,1.59-.56,3.18-0.81,4.77a16.15,16.15,0,0,0-.1,1.7,10.962,10.962,0,0,1-.08,2.06,20.267,20.267,0,0,0-.31,5q0.105,4.6.21,9.2a1.078,1.078,0,0,0,.06.48,0.456,0.456,0,0,0,.32.29,0.774,0.774,0,0,0,.4-0.37c1.14-2.12,2.19-4.3,3.42-6.38a20.74,20.74,0,0,1,3.57-4.85c0.88-.81,1.92-0.69,2.26.28a1.257,1.257,0,0,1-.72,1.58,6,6,0,0,0-2.2,1.68,49.082,49.082,0,0,0-4.63,6.53c-0.7,1.13-1.38,2.26-2.02,3.42a2.735,2.735,0,0,0-.17.92,1.987,1.987,0,0,0,.73-0.1q4.77-2.625,9.53-5.3c2.2-1.23,4.38-2.5,6.57-3.77a3.163,3.163,0,0,0,1.31-1.99,4.521,4.521,0,0,1,.69-1.39c0.37-.51.93-0.39,0.95,0.19a5.355,5.355,0,0,1-.3,2.74,0.809,0.809,0,0,0-.08.25c-0.17,1.84-.44,3.7-0.47,5.51a3.678,3.678,0,0,0,.83,1.99c0.37,0.54,1.35.31,1.96-.5a29.621,29.621,0,0,0,2.29-3.39c1.18-2.06,2.25-4.18,3.37-6.27,1.16-2.15,2.25-4.34,3.5-6.44,1.76-2.92,3.63-5.78,5.47-8.65a9.862,9.862,0,0,1,.77-0.94,1.047,1.047,0,0,1,1.16-.51,1.321,1.321,0,0,1,.68.89,15.235,15.235,0,0,1,.1,2.26C1334.85,9466.07,1334.83,9466.07,1334.81,9466.08Zm-78.7,29.85c-0.36-1.17.15-2.54,0.54-3.82a7.118,7.118,0,0,1,2.39-3.76c0.95-.72,1.95-0.49,2.13.57a6.084,6.084,0,0,1-.39,3.21,34.385,34.385,0,0,1-2.74,5.5,0.973,0.973,0,0,0-.15.76,7.209,7.209,0,0,0,1.5,2.25c1.12,0.84,2.65.21,3.62-.6a16.418,16.418,0,0,0,4.28-5.6,25.114,25.114,0,0,0,1.53-3.66,9.885,9.885,0,0,0,.55-4.74,7,7,0,0,0-.32-0.91c-0.56-1.48-.47-2.44,1.06-3.38,1.85-1.14,3.72-2.22,5.59-3.3,0.84-.49,1.7-0.95,2.56-1.38,1.46-.73,2.92-1.43,4.39-2.13a2.843,2.843,0,0,1,2.09-.27c0.94,0.27,1.23,1.33.79,2.45a82.267,82.267,0,0,1-5.1,9.64c-1.27,2.29-2.54,4.58-3.74,6.9-1,1.94-1.92,3.92-2.85,5.89-0.52,1.07-1.03,2.16-1.47,3.26-0.3.74-.47,1.53-0.7,2.29a8.865,8.865,0,0,0-.29.87,1.182,1.182,0,0,0,.04.78,0.678,0.678,0,0,0,.66-0.11c0.96-.72,1.88-1.5,2.82-2.24,2.39-1.86,4.77-3.74,7.19-5.53,1.75-1.31,3.54-2.56,5.35-3.71a37.492,37.492,0,0,1,3.62-1.86,1.175,1.175,0,0,1,.63-0.11,0.418,0.418,0,0,1,.36.25,0.788,0.788,0,0,1-.23.55,8.013,8.013,0,0,1-.99.55c-1.16.65-2.34,1.25-3.48,1.94-1.36.83-2.7,1.74-4.05,2.59a64.581,64.581,0,0,0-6.54,4.67c-1.55,1.27-3.13,2.52-4.72,3.71-0.94.7-1.62,0.35-1.5-.78a8.778,8.778,0,0,1,.49-3.01,19.2,19.2,0,0,0,.72-2.49,17.646,17.646,0,0,1,.65-1.8c1.08-2.45,2.1-4.93,3.31-7.33,1.11-2.23,2.44-4.38,3.66-6.57,1.37-2.46,2.73-4.94,4.09-7.41a4.344,4.344,0,0,0,.45-0.81,1.673,1.673,0,0,0,.06-1,0.727,0.727,0,0,0-.76-0.16,41.346,41.346,0,0,0-6.8,3.03c-1.81,1.01-3.63,1.99-5.43,3.02a7.618,7.618,0,0,0-1.2.87,0.882,0.882,0,0,0-.28,1.13,8.523,8.523,0,0,1,.17,5.81,31.428,31.428,0,0,1-1.28,3.72,27.546,27.546,0,0,1-1.9,3.55,15.652,15.652,0,0,1-2.95,3.63c-1.83,1.6-3.55,2.04-5.19.8a5.341,5.341,0,0,1-1.68-2.64A7.332,7.332,0,0,1,1256.11,9495.93Zm1.5-1.44c0.02,0.43,0,.87.06,1.28a0.967,0.967,0,0,0,.29.41,1.74,1.74,0,0,0,.42-0.44c0.37-.74.75-1.48,1.04-2.24,0.4-1.07.78-2.15,1.08-3.23a1.378,1.378,0,0,0-.24-0.96,0.561,0.561,0,0,0-.61.02,2.328,2.328,0,0,0-.78.78C1258.17,9491.53,1257.42,9492.95,1257.61,9494.49Zm-4.21-2.07c-0.62-.05-1.24-0.09-1.85-0.17-1.16-.16-1.53.01-2.34,1.19a16.018,16.018,0,0,0-2.16,4.77c-0.27,1.02-.62,2.03-0.92,3.04-0.07.23-.08,0.47-0.13,0.7-0.11.54-.24,1.08-0.36,1.62-0.02.07-.05,0.13-0.06,0.19-0.21,1.23-.43,2.47-0.6,3.7a1.818,1.818,0,0,1-.72,1.4,0.948,0.948,0,0,1-.85-1c-0.02-1.92,0-3.84.05-5.77,0.02-.81.16-1.64,0.19-2.45a7.027,7.027,0,0,1,.39-2.76,2.536,2.536,0,0,0,.12-1.06,1.158,1.158,0,0,0-.25-0.46,2.243,2.243,0,0,0-.46.4c-0.74,1.26-1.43,2.54-2.18,3.8a59.931,59.931,0,0,1-5.23,8.08,13.667,13.667,0,0,1-2.91,2.78,3.028,3.028,0,0,1-3.62.23,5.312,5.312,0,0,1-1.8-2.31,8.589,8.589,0,0,1-.52-3.51,8.136,8.136,0,0,1,.3-1.55c0.05-.23.12-0.47,0.16-0.7a7.054,7.054,0,0,1,1.81-3.87c0.77-.82,1.91-1.01,2.41-0.33a1.593,1.593,0,0,1,.21,1.2,11.026,11.026,0,0,1-1.55,3.56c-0.4.56-.87,1.07-1.29,1.62a1.928,1.928,0,0,0-.43.84,4.518,4.518,0,0,0,1.2,3.84c0.98,0.91,2.46.78,3.65-.38a30.59,30.59,0,0,0,4.54-5.64c1.51-2.45,2.97-4.92,4.42-7.41,0.85-1.45,1.63-2.93,2.41-4.41a11.443,11.443,0,0,0,.57-1.47c0.26-.67.48-1.36,0.78-2.02a2.987,2.987,0,0,1,.7-1.03,0.621,0.621,0,0,1,.68.08,4.07,4.07,0,0,1-.02,1.3,10.269,10.269,0,0,1-.31,1.18c-0.12.44-.23,0.88-0.34,1.31-0.02.07-.07,0.13-0.08,0.19-0.21,1.17-.42,2.34-0.64,3.51-0.1.54-.23,1.09-0.31,1.63a16.213,16.213,0,0,0-.2,1.69,0.789,0.789,0,0,0,.3.38,2.388,2.388,0,0,0,.37-0.5c0.58-1.36,1.11-2.74,1.7-4.1a6.463,6.463,0,0,1,.77-1.18c0.86-1.13,1.75-1.49,2.84-1.13,0.48,0.15.95,0.33,1.41,0.51a0.866,0.866,0,0,1,.24.26Zm-22.66,7.91a1.06,1.06,0,0,0-.3-0.51,0.832,0.832,0,0,0-.59.35c-0.39.88-.75,1.77-1.07,2.68a1.385,1.385,0,0,0,.2.66,7.05,7.05,0,0,0,.58-0.51,1.916,1.916,0,0,0,.28-0.53C1230.14,9501.77,1230.43,9501.07,1230.74,9500.33Zm84.27-25.42a1.071,1.071,0,0,1,.79-0.98c0.43-.11.9,0.16,0.76,0.52a2.748,2.748,0,0,1-.8,1.1C1315.47,9475.78,1315.02,9475.33,1315.01,9474.91Z" transform="translate(-1149 -9451)"/>
</svg>
